<?xml version="1.0" encoding="UTF-8" standalone="no"?>
<!-- Created with Inkscape (http://www.inkscape.org/) -->

<svg
   xmlns:dc="http://purl.org/dc/elements/1.1/"
   xmlns:cc="http://creativecommons.org/ns#"
   xmlns:rdf="http://www.w3.org/1999/02/22-rdf-syntax-ns#"
   xmlns:svg="http://www.w3.org/2000/svg"
   xmlns="http://www.w3.org/2000/svg"
   xmlns:sodipodi="http://sodipodi.sourceforge.net/DTD/sodipodi-0.dtd"
   xmlns:inkscape="http://www.inkscape.org/namespaces/inkscape"
   width="198.70708"
   height="159.99123"
   viewBox="0 0 198.70707 159.99122"
   id="svg4172"
   version="1.1"
   inkscape:version="0.91 r13725"
   sodipodi:docname="drawing.svg">
  <defs
     id="defs4174" />
  <sodipodi:namedview
     id="base"
     pagecolor="#ffffff"
     bordercolor="#666666"
     borderopacity="1.0"
     inkscape:pageopacity="0.0"
     inkscape:pageshadow="2"
     inkscape:zoom="2.8"
     inkscape:cx="136.43977"
     inkscape:cy="23.155593"
     inkscape:document-units="px"
     inkscape:current-layer="layer1"
     showgrid="false"
     units="px"
     showguides="false"
     inkscape:window-width="1310"
     inkscape:window-height="1153"
     inkscape:window-x="472"
     inkscape:window-y="21"
     inkscape:window-maximized="0"
     fit-margin-top="0"
     fit-margin-left="0"
     fit-margin-right="0"
     fit-margin-bottom="0" />
  <metadata
     id="metadata4177">
    <rdf:RDF>
      <cc:Work
         rdf:about="">
        <dc:format>image/svg+xml</dc:format>
        <dc:type
           rdf:resource="http://purl.org/dc/dcmitype/StillImage" />
        <dc:title></dc:title>
      </cc:Work>
    </rdf:RDF>
  </metadata>
  <g
     inkscape:label="Layer 1"
     inkscape:groupmode="layer"
     id="layer1"
     transform="translate(-1.0714262,-854.2194)">
    <g
       transform="matrix(2.9318988,0,0,2.8974993,51.162819,884.16369)"
       id="g3"
       style="fill:#ff2a2a">
      <g
         id="Statics"
         style="fill:#ff2a2a">
        <g
           id="g6"
           style="fill:#ff2a2a">
          <path
             inkscape:connector-curvature="0"
             d="M 31.834,1.553 C 32.14,1.092 32.013,0.473 31.552,0.167 31.09,-0.138 30.472,-0.012 30.166,0.45 L 26.467,6.049 C 26.313,6.024 26.16,6.001 26,6.001 c -1.652,0 -3,1.347 -3,3 0,0.318 0.063,0.619 0.155,0.907 l -3.572,4.555 c -0.461,-0.288 -1,-0.462 -1.582,-0.462 -1.613,0 -2.924,1.283 -2.988,2.88 L 9.362,20.172 C 8.812,19.466 7.963,19.001 7,19.001 c -1.654,0 -3,1.347 -3,3 0,0.65 0.214,1.25 0.566,1.742 l -4.402,6.709 c -0.303,0.463 -0.175,1.082 0.287,1.385 0.169,0.111 0.36,0.164 0.548,0.164 0.326,0 0.646,-0.158 0.837,-0.451 l 4.375,-6.666 c 0.253,0.068 0.516,0.117 0.789,0.117 1.613,0 2.924,-1.281 2.988,-2.881 l 5.651,-3.289 c 0.549,0.707 1.398,1.17 2.361,1.17 1.654,0 3,-1.346 3,-3 0,-0.317 -0.062,-0.619 -0.153,-0.906 l 3.57,-4.554 c 0.461,0.287 1,0.461 1.582,0.461 1.653,0 3,-1.346 3,-3 0,-0.767 -0.298,-1.459 -0.771,-1.99 L 31.834,1.553 Z M 7,23.001 c -0.552,0 -1,-0.447 -1,-1 0,-0.551 0.448,-1 1,-1 0.552,0 1,0.449 1,1 0,0.553 -0.448,1 -1,1 z m 11,-5 c -0.552,0 -1,-0.447 -1,-1 0,-0.551 0.448,-1 1,-1 0.552,0 1,0.449 1,1 0,0.553 -0.448,1 -1,1 z m 8,-8 c -0.552,0 -1,-0.448 -1,-1 0,-0.551 0.448,-1 1,-1 0.552,0 1,0.449 1,1 0,0.552 -0.449,1 -1,1 z m -20,20 c -0.553,0 -1,0.449 -1,1 0,0.553 0.447,1 1,1 0.553,0 1,-0.447 1,-1 0,-0.551 -0.446,-1 -1,-1 z m 5,0 c -0.553,0 -1,0.449 -1,1 0,0.553 0.447,1 1,1 0.553,0 1,-0.447 1,-1 0,-0.551 -0.446,-1 -1,-1 z m 5,0 c -0.553,0 -1,0.449 -1,1 0,0.553 0.447,1 1,1 0.553,0 1,-0.447 1,-1 0,-0.551 -0.446,-1 -1,-1 z m 5,0 c -0.553,0 -1,0.449 -1,1 0,0.553 0.447,1 1,1 0.554,0 1,-0.447 1,-1 0,-0.551 -0.446,-1 -1,-1 z m 5,0 c -0.553,0 -1,0.449 -1,1 0,0.553 0.447,1 1,1 0.554,0 1,-0.447 1,-1 0,-0.551 -0.446,-1 -1,-1 z m 5,0 c -0.553,0 -1,0.449 -1,1 0,0.553 0.447,1 1,1 0.554,0 1,-0.447 1,-1 0,-0.551 -0.446,-1 -1,-1 z m -30,-3 c 0.553,0 1,-0.447 1,-1 0,-0.551 -0.447,-1 -1,-1 -0.553,0 -1,0.449 -1,1 0,0.553 0.447,1 1,1 z m 0,-5 c 0.553,0 1,-0.447 1,-1 0,-0.551 -0.447,-1 -1,-1 -0.553,0 -1,0.449 -1,1 0,0.553 0.447,1 1,1 z m 0,-5 c 0.553,0 1,-0.447 1,-1 0,-0.551 -0.447,-1 -1,-1 -0.553,0 -1,0.448 -1,1 0,0.553 0.447,1 1,1 z m 0,-5 c 0.553,0 1,-0.446 1,-1 0,-0.552 -0.447,-1 -1,-1 -0.553,0 -1,0.448 -1,1 0,0.555 0.447,1 1,1 z m 0,-5 c 0.553,0 1,-0.446 1,-1 0,-0.552 -0.447,-1 -1,-1 -0.553,0 -1,0.448 -1,1 0,0.555 0.447,1 1,1 z m 0,-5 c 0.553,0 1,-0.446 1,-1 0,-0.552 -0.447,-1 -1,-1 -0.553,0 -1,0.448 -1,1 0,0.555 0.447,1 1,1 z"
             id="path8"
             style="fill:#ff2a2a" />
        </g>
      </g>
    </g>
    <g
       transform="matrix(2.4039197,0,0,2.3757149,16.838359,907.00205)"
       id="g10" />
    <g
       transform="matrix(2.4039197,0,0,2.3757149,16.838359,907.00205)"
       id="g12" />
    <g
       transform="matrix(2.4039197,0,0,2.3757149,16.838359,907.00205)"
       id="g14" />
    <g
       transform="matrix(2.4039197,0,0,2.3757149,16.838359,907.00205)"
       id="g16" />
    <g
       transform="matrix(2.4039197,0,0,2.3757149,16.838359,907.00205)"
       id="g18" />
    <g
       transform="matrix(2.4039197,0,0,2.3757149,16.838359,907.00205)"
       id="g20" />
    <g
       transform="matrix(2.4039197,0,0,2.3757149,16.838359,907.00205)"
       id="g22" />
    <g
       transform="matrix(2.4039197,0,0,2.3757149,16.838359,907.00205)"
       id="g24" />
    <g
       transform="matrix(2.4039197,0,0,2.3757149,16.838359,907.00205)"
       id="g26" />
    <g
       transform="matrix(2.4039197,0,0,2.3757149,16.838359,907.00205)"
       id="g28" />
    <g
       transform="matrix(2.4039197,0,0,2.3757149,16.838359,907.00205)"
       id="g30" />
    <g
       transform="matrix(2.4039197,0,0,2.3757149,16.838359,907.00205)"
       id="g32" />
    <g
       transform="matrix(2.4039197,0,0,2.3757149,16.838359,907.00205)"
       id="g34" />
    <g
       transform="matrix(2.4039197,0,0,2.3757149,16.838359,907.00205)"
       id="g36" />
    <g
       transform="matrix(2.4039197,0,0,2.3757149,16.838359,907.00205)"
       id="g38" />
    <path
       inkscape:connector-curvature="0"
       d="m 169.17086,906.99449 c -1.74444,-29.33036 -26.20948,-52.77509 -55.70009,-52.77509 -17.906073,0 -35.24495,8.67853 -45.988594,22.83857 -0.247322,-0.1271 -0.507833,-0.21509 -0.758452,-0.33241 -0.652928,-0.31286 -1.31575,-0.60942 -1.991761,-0.87665 -0.375929,-0.14665 -0.751858,-0.28027 -1.131084,-0.41063 -0.669416,-0.23138 -1.348726,-0.43669 -2.041226,-0.62245 -0.379226,-0.10103 -0.755155,-0.20531 -1.137679,-0.29005 -0.741964,-0.1662 -1.500416,-0.2933 -2.265465,-0.40736 -0.333058,-0.0489 -0.659523,-0.11406 -0.99588,-0.14991 -1.094809,-0.12058 -2.202809,-0.19554 -3.327298,-0.19554 -16.366084,0 -29.678573,13.1563 -29.678573,29.33036 0,0.41388 0.02638,0.82125 0.05276,1.22862 l 0,0.013 c -13.714794,7.39125 -23.1360918,22.87116 -23.1360918,38.36737 0,23.08298 19.0008818,41.86418 42.3579118,41.86418 l 80.818052,0 c 0.34296,0 0.68261,-0.019 1.02556,-0.046 l 0.20445,-0.026 0.44189,0.026 c 0.33635,0.026 0.67271,0.046 1.01896,0.046 l 32.32656,0 c 21.86977,0 39.66372,-17.58518 39.66372,-39.19839 0,-17.88825 -12.61997,-33.93195 -29.75767,-38.38365 z m -9.90605,71.06411 -32.32656,0 c -0.19456,0 -0.38252,-0.017 -0.57378,-0.029 l -0.89366,-0.035 -0.65293,0.035 c -0.18796,0.013 -0.37923,0.029 -0.57049,0.029 l -80.81805,0 c -19.71976,0 -35.7626727,-15.8546 -35.7626727,-35.34624 0,-13.5376 8.9200587,-27.5901 21.2135797,-33.41381 l 1.86975,-0.88317 0,-2.05312 c 0,-0.41389 0.02638,-0.83428 0.04946,-1.25795 l 0.02968,-0.52143 -0.03957,-0.68437 c -0.01979,-0.26397 -0.03957,-0.52795 -0.03957,-0.79518 0,-12.57621 10.357823,-22.8125 23.083335,-22.8125 1.018964,0 2.024738,0.088 3.023917,0.21835 0.257214,0.0326 0.514428,0.0749 0.768344,0.11732 0.880465,0.14339 1.747739,0.33241 2.601822,0.57683 0.115417,0.0326 0.234131,0.0554 0.349548,0.088 0.939821,0.28353 1.85656,0.64201 2.753511,1.04612 0.234132,0.10428 0.461667,0.21834 0.6925,0.32915 0.791429,0.38781 1.56637,0.81147 2.314929,1.29053 6.354512,4.06715 10.578762,11.12273 10.578762,19.14621 0,1.80219 1.474036,3.25893 3.29762,3.25893 1.823583,0 3.297619,-1.45674 3.297619,-3.25893 0,-8.97509 -4.108834,-17.00834 -10.552382,-22.3921 9.454275,-12.22098 25.022332,-19.97397 40.511248,-19.97397 25.54006,0 46.75035,19.99352 48.96305,45.26 -3.37017,-0.23464 -8.41552,-0.35522 -13.46418,0.40411 -1.8005,0.27049 -3.03711,1.93255 -2.7634,3.71192 0.24732,1.61316 1.6521,2.77008 3.25475,2.77008 0.16488,0 0.33306,-0.013 0.49794,-0.0391 7.34379,-1.09826 14.99757,-0.0684 15.44604,-0.007 15.35373,2.88415 26.92833,16.8617 26.92833,32.54039 0,18.0186 -14.83596,32.68043 -33.06849,32.68043 z"
       id="path3"
       style="fill:#0000ff" />
    <text
       xml:space="preserve"
       style="font-style:normal;font-variant:normal;font-weight:normal;font-stretch:normal;font-size:36.62692642px;line-height:125%;font-family:Utopia;-inkscape-font-specification:Utopia;letter-spacing:0px;word-spacing:0px;fill:#000000;fill-opacity:1;stroke:none;stroke-width:1px;stroke-linecap:butt;stroke-linejoin:miter;stroke-opacity:1"
       x="3.1770115"
       y="1013.5131"
       id="text4795"
       sodipodi:linespacing="125%"><tspan
         sodipodi:role="line"
         id="tspan4797"
         x="3.1770115"
         y="1013.5131"
         style="font-style:normal;font-variant:normal;font-weight:normal;font-stretch:normal;font-family:Yellowtail;-inkscape-font-specification:Yellowtail">normalweatherr</tspan></text>
  </g>
</svg>
